PathFileType	4	(X/Y/Z)	./resultDataOpenSim/trcMotMarkerGrf/sub06/qtm-05-04.trc
DataRate	CameraRate	NumFrames	NumMarkers	Units	OrigDataRate	OrigDataStartFrame	OrigNumFrames
250.000000	250.000000	14	24	m	250.000000	131	521
Frame#	Time	L.Toe.Tip			R.Toe.Tip			L.Ankle.Lat			R.Ankle.Lat			L.Ankle.Med			R.Ankle.Med			L.Heel			R.Heel			L.Knee.Lat			R.Knee.Lat			L.Knee.Med			R.Knee.Med			L.Thigh.Upper			R.Thigh.Upper			L.ASIS			R.ASIS			V.Sacral			L.Acromium			R.Acromium			C7			L.Elbow			R.Elbow			L.Wrist.Lat			R.Wrist.Lat
		X1	Y1	Z1	X2	Y2	Z2	X3	Y3	Z3	X4	Y4	Z4	X5	Y5	Z5	X6	Y6	Z6	X7	Y7	Z7	X8	Y8	Z8	X9	Y9	Z9	X10	Y10	Z10	X11	Y11	Z11	X12	Y12	Z12	X13	Y13	Z13	X14	Y14	Z14	X15	Y15	Z15	X16	Y16	Z16	X17	Y17	Z17	X18	Y18	Z18	X19	Y19	Z19	X20	Y20	Z20	X21	Y21	Z21	X22	Y22	Z22	X23	Y23	Z23	X24	Y24	Z24

131	0.52	-0.21605513	0.08054865	-0.026221445	-0.74312214	0.037456338	0.13947613	-0.34535496	0.10935615	-0.039220178	-0.87735341	0.070001683	0.15718895	-0.33484951	0.13230988	0.043728456	-0.85072536	0.09386035	0.075567105	-0.4028711	0.077092681	0.02063764	-0.92942406	0.051982824	0.091765113	-0.42202412	0.47788887	-0.059156996	-0.74459255	0.44283076	0.19100233	-0.42293376	0.47444579	0.064614034	-0.76711107	0.44015859	0.059204576	-0.62092023	0.82068507	-0.098564201	-0.66576976	0.80457344	0.25575546	-0.5593484	0.86510659	-0.04860146	-0.5582481	0.85564278	0.19827588	-0.73870401	0.92491205	0.073591084	-0.64036199	1.3433843	-0.10464253	-0.60596923	1.331264	0.25241768	-0.7023694	1.3687541	0.081373886	-0.7370941	1.0460946	-0.14589812	-0.65306753	1.0200933	0.34691382	-0.65161891	0.82410053	-0.21120564	-0.43192074	0.89974652	0.3222084
132	0.524	-0.19983873	0.081702226	-0.026529962	-0.7431454	0.037356312	0.13939048	-0.32968715	0.10988009	-0.039964034	-0.87722887	0.069926386	0.15708914	-0.31968884	0.13290947	0.04303157	-0.85054569	0.093588938	0.075301306	-0.38679708	0.077335016	0.019870954	-0.92930226	0.051918997	0.091522971	-0.41553893	0.47571891	-0.058144167	-0.74153802	0.44179101	0.19095896	-0.41607182	0.47231822	0.065795604	-0.76415136	0.43910411	0.05904955	-0.61361979	0.81833583	-0.098490721	-0.66093896	0.80280368	0.25582193	-0.55232336	0.86295417	-0.048432244	-0.55259054	0.85364125	0.19884227	-0.73347256	0.92349408	0.073727865	-0.63483868	1.3413361	-0.10478979	-0.60046089	1.3294703	0.2523217	-0.69700978	1.366796	0.081249179	-0.73187411	1.0443336	-0.14574269	-0.64564904	1.018077	0.34720811	-0.64824744	0.82201409	-0.21206434	-0.42388691	0.89995206	0.32158864
133	0.528	-0.18387585	0.08314253	-0.026870417	-0.743198	0.037241775	0.13932016	-0.31426013	0.11054147	-0.040697573	-0.87709622	0.069825144	0.15700177	-0.3048875	0.13356277	0.042341423	-0.85037587	0.093271415	0.075026966	-0.37103733	0.077614639	0.019143963	-0.92919296	0.051859195	0.091303455	-0.40906957	0.47341374	-0.057134084	-0.73827598	0.44060656	0.1909022	-0.40925721	0.4700775	0.067019365	-0.76100618	0.43791133	0.05892304	-0.60629378	0.81584953	-0.098425268	-0.65610056	0.80095591	0.255877	-0.5452803	0.86068752	-0.048249907	-0.54698116	0.85155386	0.19941098	-0.72917646	0.92251077	0.074449199	-0.62931462	1.3391926	-0.10493551	-0.59494516	1.3275846	0.25222759	-0.69165134	1.3647437	0.081112305	-0.72664333	1.0424495	-0.14565382	-0.63829908	1.0159744	0.34752867	-0.64477753	0.81986719	-0.21291299	-0.41589186	0.9000591	0.32097847
134	0.532	-0.16820445	0.084845605	-0.027218153	-0.74324033	0.037143832	0.13925978	-0.29915438	0.11131449	-0.041421363	-0.87695048	0.069704895	0.15692235	-0.29041627	0.13427252	0.041705261	-0.85022712	0.092923854	0.074756812	-0.35562376	0.077910663	0.018423036	-0.92923065	0.051821725	0.091307673	-0.40258852	0.47100324	-0.056134788	-0.73483538	0.43929352	0.19082182	-0.40252067	0.467729	0.068256263	-0.75768381	0.43659467	0.058822475	-0.59910946	0.81320683	-0.098401546	-0.65122936	0.79904734	0.25592043	-0.53822172	0.85831088	-0.048044524	-0.54145413	0.8493682	0.19996898	-0.72518178	0.92158628	0.075215949	-0.62378483	1.3369608	-0.10507972	-0.58943007	1.325612	0.25212874	-0.68624889	1.3625866	0.08095895	-0.72138835	1.0404614	-0.1455784	-0.63111081	1.0138093	0.34789237	-0.6410717	0.81769489	-0.21370608	-0.40793398	0.90006895	0.32037617
135	0.536	-0.15288988	0.086760753	-0.027544813	-0.74323159	0.03708681	0.13919972	-0.2844037	0.11216463	-0.042123093	-0.87679093	0.069572359	0.15683903	-0.27629829	0.13502231	0.041121181	-0.8500899	0.092558804	0.074489327	-0.34056839	0.078200325	0.017592678	-0.92943192	0.051791824	0.091546729	-0.3960709	0.46850703	-0.055156596	-0.73127063	0.43786548	0.19070504	-0.39590857	0.46528283	0.069452966	-0.75420669	0.43517288	0.058734684	-0.59203673	0.81041825	-0.098412187	-0.64637036	0.79711979	0.25600523	-0.5311457	0.85582781	-0.047811196	-0.53597794	0.84708236	0.20050949	-0.72062521	0.92031624	0.075575383	-0.61823189	1.3346418	-0.10523164	-0.58393377	1.3235514	0.25202315	-0.68081125	1.360332	0.08079107	-0.71609508	1.0383892	-0.14549003	-0.62406593	1.0115923	0.34827948	-0.6371546	0.81548538	-0.21444494	-0.40001173	0.89997889	0.31978057
136	0.54	-0.13798014	0.088825922	-0.027844741	-0.74317801	0.037055859	0.13913899	-0.27002187	0.11305394	-0.042783323	-0.87662543	0.06943404	0.15673608	-0.26255528	0.13578218	0.040559309	-0.84994556	0.092182183	0.074215805	-0.32587786	0.078469319	0.016573747	-0.92963989	0.051742034	0.091771576	-0.38950684	0.46594067	-0.054200551	-0.72763189	0.43634211	0.19055109	-0.38943574	0.46275171	0.070579585	-0.75059135	0.43367106	0.058649242	-0.58495599	0.80752091	-0.098423124	-0.64157853	0.79519349	0.2561651	-0.52404696	0.85324123	-0.047543499	-0.53050385	0.84471061	0.20103189	-0.71512507	0.91860033	0.075562959	-0.61263823	1.3322331	-0.10540111	-0.5784798	1.3213954	0.25191703	-0.67535741	1.3579953	0.080608876	-0.71076755	1.0362437	-0.14541367	-0.61713896	1.009334	0.3486917	-0.63311041	0.81321096	-0.2151507	-0.39212852	0.89978721	0.31919648
137	0.544	-0.12348646	0.090972884	-0.028134907	-0.74312118	0.037019795	0.13908631	-0.25602453	0.11394576	-0.043384761	-0.87647085	0.069295495	0.1566013	-0.24917923	0.13651947	0.039992546	-0.84978177	0.091797503	0.07392693	-0.31158944	0.078727025	0.015408687	-0.9297233	0.051670091	0.091783313	-0.38290903	0.46332985	-0.053267194	-0.72394282	0.43474664	0.19037647	-0.38306799	0.46015201	0.071642907	-0.74684699	0.43211688	0.058560767	-0.57780037	0.80455074	-0.098409291	-0.63684172	0.79322935	0.25632285	-0.51691927	0.85055678	-0.047230659	-0.5250173	0.84227036	0.20154691	-0.70889059	0.9166113	0.075498715	-0.60700368	1.3297361	-0.10559282	-0.57308345	1.3191359	0.2518139	-0.66989213	1.3555868	0.080410513	-0.70541642	1.0340234	-0.14538606	-0.61033813	1.0070439	0.34915353	-0.62897365	0.81085985	-0.21583208	-0.38429643	0.89949868	0.31863514
138	0.548	-0.1094022	0.09312482	-0.028424033	-0.74308965	0.036967906	0.1390495	-0.24242197	0.11480657	-0.043912528	-0.87634411	0.069161535	0.15642984	-0.23613879	0.13722057	0.039433601	-0.84959577	0.091413516	0.073616655	-0.29772372	0.078990426	0.014252419	-0.92970205	0.051599139	0.091615842	-0.37630986	0.4607044	-0.052373733	-0.72020155	0.43309825	0.19020245	-0.37676243	0.45750467	0.0726528	-0.74298352	0.4305329	0.058463307	-0.57056947	0.80152678	-0.098370219	-0.63203444	0.79112158	0.25625563	-0.50974899	0.84778314	-0.04686781	-0.51952265	0.83977298	0.20206754	-0.70229711	0.91453865	0.07560068	-0.60134022	1.3271578	-0.10580781	-0.56773506	1.316779	0.25171255	-0.66440757	1.3531091	0.080192731	-0.70004028	1.0317216	-0.14541718	-0.60363987	1.0047131	0.34966008	-0.62470566	0.80844425	-0.2164769	-0.3765322	0.89912366	0.3181083
139	0.552	-0.095724958	0.095196306	-0.028705886	-0.74308375	0.03690836	0.13903103	-0.22921612	0.11560494	-0.044353698	-0.87624974	0.069037796	0.15622323	-0.22339777	0.13789687	0.038941279	-0.84937955	0.091043924	0.073282152	-0.28423455	0.079256188	0.013296065	-0.92964577	0.051552058	0.091378636	-0.36972319	0.45808327	-0.051545329	-0.7164036	0.43141819	0.19003697	-0.37050015	0.45482643	0.073605363	-0.73901122	0.42893205	0.058349354	-0.5632857	0.7984563	-0.098317857	-0.62694384	0.78873399	0.25567485	-0.50251239	0.84493234	-0.04646363	-0.51402057	0.83722244	0.20259843	-0.69556972	0.91244673	0.075858049	-0.59565173	1.3245085	-0.10604512	-0.56240012	1.3143492	0.2516115	-0.65889686	1.3505693	0.079949609	-0.69462873	1.029336	-0.14549486	-0.59694821	1.0023084	0.35015438	-0.62024081	0.80598898	-0.21706601	-0.36884012	0.89866895	0.31761874
140	0.556	-0.082474035	0.097095548	-0.02898039	-0.74309131	0.036850158	0.13902778	-0.21640055	0.11631126	-0.044698922	-0.87618248	0.068932594	0.15598763	-0.21093275	0.13855358	0.038574558	-0.84910668	0.090698165	0.072921377	-0.27108343	0.079503601	0.012639092	-0.92957381	0.051539618	0.091108619	-0.36306745	0.45548412	-0.050782638	-0.71255584	0.4297261	0.18987093	-0.36427268	0.45211842	0.074495162	-0.73493571	0.42731797	0.058218181	-0.55596556	0.79534532	-0.098259572	-0.62140026	0.78598298	0.25440887	-0.49519767	0.84202039	-0.04603256	-0.50850943	0.83461958	0.20313616	-0.68876256	0.91029313	0.076107768	-0.58992532	1.3217971	-0.10630232	-0.55704749	1.3118714	0.2515109	-0.65336875	1.3479904	0.079671549	-0.68917582	1.0268722	-0.14560366	-0.5901702	0.9998004	0.35058079	-0.61557822	0.80350398	-0.21760229	-0.36118903	0.89813016	0.31715064
141	0.56	-0.06968947	0.09873098	-0.029257753	-0.7431015	0.03679701	0.13903135	-0.20396696	0.11689239	-0.044946606	-0.8761402	0.068858371	0.15573423	-0.19874697	0.13915705	0.038360337	-0.84874974	0.090376494	0.072537289	-0.25830754	0.079708569	0.012241811	-0.92946881	0.051567297	0.090786816	-0.35616463	0.45294139	-0.050053342	-0.70867162	0.42802108	0.18969169	-0.35805935	0.44937131	0.075322188	-0.73076177	0.42569199	0.058074552	-0.54861371	0.79220638	-0.09819341	-0.61540867	0.78290462	0.25253794	-0.48782496	0.83905831	-0.04558048	-0.50298746	0.83196834	0.20367559	-0.68185316	0.90799438	0.076138526	-0.58413957	1.3190265	-0.10657807	-0.55167382	1.3093562	0.25141519	-0.6478463	1.3454091	0.079345289	-0.68368139	1.0243389	-0.14573448	-0.58329463	0.99718942	0.35093712	-0.61081032	0.80096704	-0.21811516	-0.35352674	0.89749563	0.3166744
142	0.564	-0.057400462	0.10002636	-0.029534194	-0.74311009	0.0367487	0.139033	-0.19192754	0.11730311	-0.045099097	-0.87611702	0.068829312	0.15547499	-0.18687443	0.13964053	0.0382995	-0.84833568	0.090077121	0.072151325	-0.24596251	0.079838904	0.012040118	-0.92933344	0.05164678	0.090409535	-0.34892354	0.45048867	-0.049338893	-0.7047658	0.42628455	0.18949916	-0.35182912	0.44658025	0.076086453	-0.72649716	0.42406084	0.057913977	-0.54122531	0.78906024	-0.098109463	-0.60915464	0.77964556	0.25036667	-0.48041748	0.8360448	-0.045099084	-0.49745304	0.82927648	0.20421719	-0.67482878	0.9054864	0.075780024	-0.57828047	1.3161946	-0.10687318	-0.54629392	1.3068032	0.25132857	-0.64234057	1.3428537	0.078960701	-0.67814254	1.0217436	-0.14588548	-0.57635976	0.99449532	0.35125076	-0.60604465	0.79834407	-0.21863283	-0.34584551	0.89675779	0.3161728
143	0.568	-0.045605956	0.10093201	-0.029778749	-0.74311863	0.036702795	0.1390287	-0.18032367	0.11749027	-0.045147822	-0.8760756	0.068851094	0.15520728	-0.17537488	0.1399374	0.03835546	-0.84797217	0.08980398	0.071801376	-0.23406111	0.079850157	0.01203611	-0.92921662	0.05179607	0.090021371	-0.34147982	0.4481285	-0.048673309	-0.70084677	0.42450942	0.18930834	-0.34555445	0.44374856	0.076784035	-0.72214639	0.42243146	0.057723451	-0.53379683	0.7859278	-0.097995272	-0.602909	0.77640057	0.24829221	-0.47297877	0.83297675	-0.044576291	-0.49190805	0.82655275	0.20476596	-0.66774904	0.90278647	0.075009899	-0.57234838	1.3133035	-0.10718821	-0.54092094	1.3042068	0.2512462	-0.63682694	1.3403164	0.078522247	-0.67255041	1.0190909	-0.14606069	-0.56939387	0.99174214	0.35153374	-0.6013602	0.79561846	-0.21917511	-0.33820235	0.89591981	0.31565762
144	0.572	-0.034291434	0.10142337	-0.029948925	-0.74312876	0.036656845	0.13901865	-0.16918632	0.11741156	-0.045084172	-0.8759561	0.068917366	0.15491416	-0.1643169	0.14000399	0.038452823	-0.84773249	0.089565316	0.071492744	-0.22259647	0.079694611	0.012245652	-0.92915915	0.052021401	0.089666747	-0.33402302	0.44584596	-0.04810366	-0.69690699	0.42271332	0.18913638	-0.33921641	0.44088215	0.077408155	-0.71770543	0.4207977	0.057502654	-0.52633949	0.78281823	-0.097848021	-0.59691728	0.77334197	0.246664	-0.46552834	0.82986063	-0.044012391	-0.48635074	0.82380393	0.20532314	-0.66077229	0.90003571	0.074043903	-0.5663464	1.3103627	-0.10752389	-0.53556963	1.3015596	0.2511595	-0.6312596	1.3377565	0.078046974	-0.66689719	1.0163823	-0.14626692	-0.56240719	0.9889525	0.35177894	-0.59681436	0.79279414	-0.21975899	-0.33065064	0.89498965	0.31515369
